<svg xmlns="http://www.w3.org/2000/svg" viewBox="0 0 800 800"><defs><style>.cls-1{fill:#fff;}.cls-2{fill:#b3b3b3;}</style></defs><title>VectorLogoWhiteBG</title><g id="Layer_2" data-name="Layer 2"><g id="Layer_1-2" data-name="Layer 1"><rect class="cls-1" width="800" height="800"/><path class="cls-2" d="M389.71,175V50a353.83,353.83,0,0,0-36.3,1.89h0l-5.17,51a298.29,298.29,0,0,0-70.65,18.89l-30-41.58a349.69,349.69,0,0,0-63.33,36.62l21,46.61a298,298,0,0,0-51.74,51.69l-46.6-21a349.28,349.28,0,0,0-36.66,63.33l41.43,29.86A297.87,297.87,0,0,0,92.7,358l-50.78,5.14A356.46,356.46,0,0,0,40,400a351.43,351.43,0,0,0,1.87,36.32l50.72,5.15a297.95,297.95,0,0,0,18.89,70.65L70,542a349.33,349.33,0,0,0,36.56,63.39l46.55-20.93a298.53,298.53,0,0,0,51.69,51.75l-21,46.65a349.64,349.64,0,0,0,63.27,36.72l30-41.55a298,298,0,0,0,70.63,19l5.17,51v0a356,356,0,0,0,36.85,2V625C265.58,624.84,165,524.17,165,400S265.58,175.16,389.71,175Z"/><path class="cls-2" d="M410,200H390c-110.46,0-200,89.54-200,200s89.54,200,200,200h20c110.46,0,200-89.54,200-200S520.46,200,410,200Z"/><path class="cls-2" d="M635,400c0,124.26-100.74,225-225,225v62.5c158.78,0,287.5-128.72,287.5-287.5S568.78,112.5,410,112.5V175C534.26,175,635,275.74,635,400Z"/><path class="cls-2" d="M615.76,115.2a17.46,17.46,0,0,0-5.63-23.38l0,0c-5.12-3.34-10.59-6.71-16.4-10.06s-11.47-6.41-16.92-9.17v0a17.46,17.46,0,0,0-19.25,28.84L527,137.34a291.65,291.65,0,0,1,52,30l15.79-44.47A17.47,17.47,0,0,0,615.76,115.2Z"/><path class="cls-2" d="M730.6,256.23a17.45,17.45,0,0,0,6.81-23.05h0c-2.76-5.45-5.81-11.11-9.17-16.92s-6.72-11.28-10.06-16.4l0,0a17.46,17.46,0,0,0-31.1,15.34L642.61,231a292.51,292.51,0,0,1,30.06,52.05l35.9-30.62A17.47,17.47,0,0,0,730.6,256.23Z"/><path class="cls-2" d="M759.53,435.79A17.46,17.46,0,0,0,777,419.23h0c.33-6.1.52-12.52.52-19.23s-.19-13.13-.52-19.23h0a17.46,17.46,0,0,0-34.61-2.26L696,370a292.07,292.07,0,0,1,0,60.1l46.4-8.56A17.48,17.48,0,0,0,759.53,435.79Z"/><path class="cls-2" d="M694.8,605.76a17.46,17.46,0,0,0,23.38-5.63l0,0c3.34-5.12,6.71-10.59,10.06-16.4s6.41-11.47,9.17-16.92h0a17.46,17.46,0,0,0-28.84-19.25L672.66,517a291.65,291.65,0,0,1-30,52l44.47,15.79A17.47,17.47,0,0,0,694.8,605.76Z"/><path class="cls-2" d="M553.77,720.6a17.45,17.45,0,0,0,23.05,6.81v0c5.45-2.76,11.11-5.81,16.92-9.17s11.28-6.72,16.4-10.06l0,0a17.46,17.46,0,0,0-15.34-31.1L579,632.61a292.51,292.51,0,0,1-52,30.06l30.62,35.9A17.47,17.47,0,0,0,553.77,720.6Z"/><path class="cls-2" d="M445.79,50.47A17.46,17.46,0,0,0,429.23,33v0c-6.1-.33-12.52-.52-19.23-.52v80a291.62,291.62,0,0,1,30.05,1.55l-8.56-46.4A17.48,17.48,0,0,0,445.79,50.47Z"/><path class="cls-2" d="M445.79,749.53a17.48,17.48,0,0,0-14.3-17.18l8.56-46.4A291.62,291.62,0,0,1,410,687.5v80c6.71,0,13.13-.19,19.23-.52v0A17.46,17.46,0,0,0,445.79,749.53Z"/></g></g></svg>